<svg width="28" height="28" viewBox="0 0 28 28" fill="none" xmlns="http://www.w3.org/2000/svg">
<path d="M2.33333 8.1665L11.8591 14.8345C12.6304 15.3745 13.0161 15.6445 13.4356 15.749C13.8062 15.8414 14.1938 15.8414 14.5644 15.749C14.9839 15.6445 15.3696 15.3745 16.1409 14.8345L25.6667 8.1665M7.93333 23.3332H20.0667C22.0268 23.3332 23.0069 23.3332 23.7556 22.9517C24.4142 22.6161 24.9496 22.0807 25.2852 21.4221C25.6667 20.6734 25.6667 19.6934 25.6667 17.7332V10.2665C25.6667 8.30632 25.6667 7.32623 25.2852 6.57754C24.9496 5.91897 24.4142 5.38354 23.7556 5.04798C23.0069 4.6665 22.0268 4.6665 20.0667 4.6665H7.93333C5.97315 4.6665 4.99306 4.6665 4.24437 5.04798C3.5858 5.38354 3.05037 5.91897 2.71481 6.57754C2.33333 7.32623 2.33333 8.30632 2.33333 10.2665V17.7332C2.33333 19.6934 2.33333 20.6734 2.71481 21.4221C3.05037 22.0807 3.5858 22.6161 4.24437 22.9517C4.99306 23.3332 5.97315 23.3332 7.93333 23.3332Z" stroke="white" stroke-width="2" stroke-linecap="round" stroke-linejoin="round"/>
</svg>
